<svg width="147" height="22" viewBox="0 0 147 22" fill="none" xmlns="http://www.w3.org/2000/svg">
<path d="M5.30664 10.7666H6.38086C7.43359 10.7666 8.21061 10.5911 8.71191 10.2402C9.21322 9.88932 9.46387 9.33789 9.46387 8.58594C9.46387 7.84115 9.20605 7.3112 8.69043 6.99609C8.18197 6.68099 7.39062 6.52344 6.31641 6.52344H5.30664V10.7666ZM5.30664 13.4736V19.5H1.97656V3.79492H6.55273C8.68685 3.79492 10.266 4.18522 11.29 4.96582C12.3141 5.73926 12.8262 6.91732 12.8262 8.5C12.8262 9.42383 12.5719 10.2474 12.0635 10.9707C11.555 11.6868 10.8353 12.249 9.9043 12.6572C12.2676 16.1878 13.8073 18.4688 14.5234 19.5H10.8281L7.0791 13.4736H5.30664ZM21.2158 9.5957C20.5212 9.5957 19.9769 9.81771 19.583 10.2617C19.1891 10.6986 18.9635 11.3216 18.9062 12.1309H23.5039C23.4896 11.3216 23.2783 10.6986 22.8701 10.2617C22.4619 9.81771 21.9105 9.5957 21.2158 9.5957ZM21.6777 19.7148C19.7441 19.7148 18.2331 19.1813 17.1445 18.1143C16.056 17.0472 15.5117 15.5361 15.5117 13.5811C15.5117 11.5687 16.013 10.0146 17.0156 8.91895C18.0254 7.81608 19.4183 7.26465 21.1943 7.26465C22.8916 7.26465 24.2129 7.74805 25.1582 8.71484C26.1035 9.68164 26.5762 11.0173 26.5762 12.7217V14.3115H18.8311C18.8669 15.2425 19.1426 15.9694 19.6582 16.4922C20.1738 17.015 20.8971 17.2764 21.8281 17.2764C22.5514 17.2764 23.2354 17.2012 23.8799 17.0508C24.5244 16.9004 25.1976 16.6605 25.8994 16.3311V18.8662C25.3265 19.1527 24.7142 19.3639 24.0625 19.5C23.4108 19.6432 22.6159 19.7148 21.6777 19.7148ZM36.8672 19.5L36.2334 17.8672H36.1475C35.596 18.5618 35.0267 19.0452 34.4395 19.3174C33.8594 19.5824 33.1003 19.7148 32.1621 19.7148C31.0091 19.7148 30.0996 19.3854 29.4336 18.7266C28.7747 18.0677 28.4453 17.1296 28.4453 15.9121C28.4453 14.6374 28.8893 13.6992 29.7773 13.0977C30.6725 12.4889 32.0189 12.1523 33.8164 12.0879L35.9004 12.0234V11.4971C35.9004 10.2796 35.2773 9.6709 34.0312 9.6709C33.0716 9.6709 31.9437 9.96094 30.6475 10.541L29.5625 8.32812C30.9447 7.60482 32.4772 7.24316 34.1602 7.24316C35.7715 7.24316 37.0068 7.59408 37.8662 8.2959C38.7256 8.99772 39.1553 10.0648 39.1553 11.4971V19.5H36.8672ZM35.9004 13.9355L34.6328 13.9785C33.6803 14.0072 32.9714 14.179 32.5059 14.4941C32.0404 14.8092 31.8076 15.2891 31.8076 15.9336C31.8076 16.8574 32.3376 17.3193 33.3975 17.3193C34.1566 17.3193 34.7617 17.1009 35.2129 16.6641C35.6712 16.2272 35.9004 15.6471 35.9004 14.9238V13.9355ZM47.416 19.7148C43.6777 19.7148 41.8086 17.6631 41.8086 13.5596C41.8086 11.5186 42.3171 9.96094 43.334 8.88672C44.3509 7.80534 45.8083 7.26465 47.7061 7.26465C49.0954 7.26465 50.3415 7.53678 51.4443 8.08105L50.4775 10.6162C49.9619 10.4085 49.4821 10.2402 49.0381 10.1113C48.5941 9.97526 48.1501 9.90723 47.7061 9.90723C46.0016 9.90723 45.1494 11.1175 45.1494 13.5381C45.1494 15.887 46.0016 17.0615 47.7061 17.0615C48.3363 17.0615 48.9199 16.9792 49.457 16.8145C49.9941 16.6426 50.5312 16.3776 51.0684 16.0195V18.8232C50.5384 19.1598 50.0013 19.3926 49.457 19.5215C48.9199 19.6504 48.2396 19.7148 47.416 19.7148ZM58.9209 17.1045C59.4938 17.1045 60.1813 16.9792 60.9834 16.7285V19.167C60.167 19.5322 59.1644 19.7148 57.9756 19.7148C56.665 19.7148 55.709 19.3854 55.1074 18.7266C54.513 18.0605 54.2158 17.0651 54.2158 15.7402V9.9502H52.6475V8.56445L54.4521 7.46875L55.3975 4.93359H57.4922V7.49023H60.8545V9.9502H57.4922V15.7402C57.4922 16.2057 57.6211 16.5495 57.8789 16.7715C58.1439 16.9935 58.4912 17.1045 58.9209 17.1045Z" fill="white"/>
<path d="M72.7246 11.1855H73.8203C74.8444 11.1855 75.6107 10.985 76.1191 10.584C76.6276 10.1758 76.8818 9.58496 76.8818 8.81152C76.8818 8.03092 76.667 7.45443 76.2373 7.08203C75.8148 6.70964 75.1488 6.52344 74.2393 6.52344H72.7246V11.1855ZM80.2441 8.69336C80.2441 10.3835 79.7142 11.6761 78.6543 12.5713C77.6016 13.4665 76.1012 13.9141 74.1533 13.9141H72.7246V19.5H69.3945V3.79492H74.4111C76.3161 3.79492 77.7627 4.20671 78.751 5.03027C79.7464 5.84668 80.2441 7.06771 80.2441 8.69336ZM91.459 19.5L91.0186 17.9639H90.8467C90.4958 18.5225 89.998 18.9557 89.3535 19.2637C88.709 19.5645 87.9749 19.7148 87.1514 19.7148C85.7406 19.7148 84.6771 19.3389 83.9609 18.5869C83.2448 17.8278 82.8867 16.7393 82.8867 15.3213V7.49023H86.1631V14.5049C86.1631 15.3714 86.3171 16.0231 86.625 16.46C86.9329 16.8896 87.4235 17.1045 88.0967 17.1045C89.0133 17.1045 89.6758 16.8001 90.084 16.1914C90.4922 15.5755 90.6963 14.5586 90.6963 13.1406V7.49023H93.9727V19.5H91.459ZM100.687 19.5H97.4102V2.78516H100.687V19.5ZM112.514 15.9336C112.514 17.1654 112.084 18.1035 111.225 18.748C110.372 19.3926 109.094 19.7148 107.39 19.7148C106.516 19.7148 105.771 19.654 105.155 19.5322C104.539 19.4176 103.963 19.2458 103.426 19.0166V16.3096C104.035 16.596 104.718 16.8359 105.478 17.0293C106.244 17.2227 106.917 17.3193 107.497 17.3193C108.686 17.3193 109.28 16.9756 109.28 16.2881C109.28 16.0303 109.201 15.8226 109.044 15.665C108.886 15.5003 108.614 15.3177 108.228 15.1172C107.841 14.9095 107.325 14.6696 106.681 14.3975C105.757 14.0107 105.076 13.6527 104.64 13.3232C104.21 12.9938 103.895 12.6178 103.694 12.1953C103.501 11.7656 103.404 11.2393 103.404 10.6162C103.404 9.54915 103.816 8.72559 104.64 8.14551C105.47 7.55827 106.645 7.26465 108.163 7.26465C109.61 7.26465 111.017 7.57975 112.385 8.20996L111.396 10.5732C110.795 10.3154 110.233 10.1042 109.71 9.93945C109.187 9.77474 108.654 9.69238 108.109 9.69238C107.143 9.69238 106.659 9.95378 106.659 10.4766C106.659 10.7702 106.813 11.0244 107.121 11.2393C107.436 11.4541 108.12 11.7728 109.173 12.1953C110.111 12.5749 110.799 12.9294 111.235 13.2588C111.672 13.5882 111.994 13.9678 112.202 14.3975C112.41 14.8271 112.514 15.3392 112.514 15.9336ZM120.044 9.5957C119.349 9.5957 118.805 9.81771 118.411 10.2617C118.017 10.6986 117.792 11.3216 117.734 12.1309H122.332C122.318 11.3216 122.106 10.6986 121.698 10.2617C121.29 9.81771 120.739 9.5957 120.044 9.5957ZM120.506 19.7148C118.572 19.7148 117.061 19.1813 115.973 18.1143C114.884 17.0472 114.34 15.5361 114.34 13.5811C114.34 11.5687 114.841 10.0146 115.844 8.91895C116.854 7.81608 118.246 7.26465 120.022 7.26465C121.72 7.26465 123.041 7.74805 123.986 8.71484C124.932 9.68164 125.404 11.0173 125.404 12.7217V14.3115H117.659C117.695 15.2425 117.971 15.9694 118.486 16.4922C119.002 17.015 119.725 17.2764 120.656 17.2764C121.38 17.2764 122.063 17.2012 122.708 17.0508C123.353 16.9004 124.026 16.6605 124.728 16.3311V18.8662C124.155 19.1527 123.542 19.3639 122.891 19.5C122.239 19.6432 121.444 19.7148 120.506 19.7148Z" fill="#E60067"/>
<path d="M143.979 6.02603C142.62 4.65799 140.415 4.65799 139.054 6.02603L137.999 7.08771L136.944 6.02603C135.584 4.65799 133.379 4.65799 132.02 6.02603C130.66 7.39407 130.66 9.61343 132.02 10.9815L137.999 17L143.979 10.9815C145.34 9.61343 145.34 7.39407 143.979 6.02603Z" fill="#E60067"/>
</svg>
